<?xml version="1.0" encoding="UTF-8"?>
<svg id="Calque_1" data-name="Calque 1" xmlns="http://www.w3.org/2000/svg" viewBox="0 0 664.79 182.57">
  <defs>
    <style>
      .cls-1 {
        fill: #fff;
      }
    </style>
  </defs>
  <path class="cls-1" d="M80.2,81.87c-7.73-4.87-16.6-7.3-26.6-7.3s-19.07,2.4-27.2,7.2c-8.13,4.8-14.57,11.27-19.3,19.4-4.73,8.13-7.1,17.27-7.1,27.4s2.46,19.27,7.4,27.4c4.93,8.13,11.63,14.6,20.1,19.4,8.46,4.8,17.9,7.2,28.3,7.2,8.4,0,15.97-1.2,22.7-3.6,6.73-2.4,13.3-6.2,19.7-11.4l-18-16.4c-2.8,2.67-6.17,4.7-10.1,6.1-3.93,1.4-8.23,2.1-12.9,2.1s-9.03-.9-13.1-2.7c-4.07-1.8-7.47-4.37-10.2-7.7-2.73-3.33-4.7-7.07-5.9-11.2h77.2v-7.2c0-10.67-2.23-20.23-6.7-28.7-4.47-8.47-10.57-15.13-18.3-20ZM27.6,118.17c1.07-4.27,2.8-7.97,5.2-11.1,2.4-3.13,5.33-5.57,8.8-7.3,3.46-1.73,7.27-2.6,11.4-2.6s7.9.9,11.3,2.7c3.4,1.8,6.33,4.27,8.8,7.4,2.46,3.13,4.17,6.77,5.1,10.9H27.6Z"/>
  <polygon class="cls-1" points="190 76.37 161.6 145.77 133 76.37 103.2 76.37 147.8 180.57 174.6 180.57 219.2 76.37 190 76.37"/>
  <path class="cls-1" d="M297.4,81.87c-7.73-4.87-16.6-7.3-26.6-7.3s-19.07,2.4-27.2,7.2c-8.13,4.8-14.57,11.27-19.3,19.4-4.73,8.13-7.1,17.27-7.1,27.4s2.46,19.27,7.4,27.4c4.93,8.13,11.63,14.6,20.1,19.4,8.46,4.8,17.9,7.2,28.3,7.2,8.4,0,15.97-1.2,22.7-3.6,6.73-2.4,13.3-6.2,19.7-11.4l-18-16.4c-2.8,2.67-6.17,4.7-10.1,6.1-3.93,1.4-8.23,2.1-12.9,2.1s-9.03-.9-13.1-2.7c-4.07-1.8-7.47-4.37-10.2-7.7-2.73-3.33-4.7-7.07-5.9-11.2h77.2v-7.2c0-10.67-2.23-20.23-6.7-28.7-4.47-8.47-10.57-15.13-18.3-20ZM244.8,118.17c1.07-4.27,2.8-7.97,5.2-11.1,2.4-3.13,5.33-5.57,8.8-7.3,3.46-1.73,7.27-2.6,11.4-2.6s7.9.9,11.3,2.7c3.4,1.8,6.33,4.27,8.8,7.4,2.46,3.13,4.17,6.77,5.1,10.9h-50.6Z"/>
  <path class="cls-1" d="M412.3,79.57c-6.2-3.47-13.37-5.2-21.5-5.2-11.47,0-21.2,3.47-29.2,10.4v-8.4h-27.4v104.2h27.4v-72.2c2.53-3.33,5.57-5.9,9.1-7.7,3.53-1.8,7.63-2.7,12.3-2.7,6.67,0,11.93,1.97,15.8,5.9,3.87,3.93,5.8,9.3,5.8,16.1v60.6h27.4v-64.6c0-8.27-1.73-15.53-5.2-21.8-3.47-6.27-8.3-11.13-14.5-14.6Z"/>
  <path class="cls-1" d="M486.6,43.57l-27.4,6v26.8h-21.4v23h21.4v51.8c0,10.13,2.97,17.83,8.9,23.1,5.93,5.27,14.7,7.9,26.3,7.9,3.07,0,6.67-.27,10.8-.8,4.13-.53,7.6-1.27,10.4-2.2v-22.6c-2.67.93-5.1,1.57-7.3,1.9-2.2.33-4.63.5-7.3.5-5.33,0-9.07-1.03-11.2-3.1-2.13-2.07-3.2-5.5-3.2-10.3v-46.2h29.8v-23h-29.8v-32.8Z"/>
  <rect class="cls-1" x="527.74" y="76.37" width="27.4" height="104.2"/>
  <path class="cls-1" d="M635.89,155.67c-4.07,1.93-8.43,2.9-13.1,2.9-5.33,0-10.17-1.3-14.5-3.9-4.33-2.6-7.77-6.2-10.3-10.8-2.53-4.6-3.8-9.7-3.8-15.3s1.23-11.07,3.7-15.6c2.46-4.53,5.83-8.1,10.1-10.7,4.27-2.6,9-3.9,14.2-3.9,4.93,0,9.5,1,13.7,3s8.23,5.13,12.1,9.4l16.8-17.8c-5.33-6-11.8-10.6-19.4-13.8s-15.54-4.8-23.8-4.8c-10.27,0-19.53,2.4-27.8,7.2-8.27,4.8-14.8,11.27-19.6,19.4-4.8,8.13-7.2,17.33-7.2,27.6s2.4,19.3,7.2,27.5c4.8,8.2,11.33,14.67,19.6,19.4,8.27,4.73,17.53,7.1,27.8,7.1,8,0,15.73-1.63,23.2-4.9,7.46-3.27,13.87-7.77,19.2-13.5l-16.4-17.2c-3.73,3.87-7.63,6.77-11.7,8.7Z"/>
  <path class="cls-1" d="M541.44,0c-8.62,0-15.6,6.98-15.6,15.6,0,8.04,6.08,14.65,13.89,15.5l-1.76,3.52h2.66v29.34h1.52v-29.34h2.66l-1.75-3.51c7.85-.81,13.98-7.45,13.98-15.52,0-8.62-6.98-15.6-15.6-15.6Z"/>
</svg>